<?xml version="1.0" encoding="UTF-8"?>
<svg xmlns="http://www.w3.org/2000/svg" viewBox="0 0 120 120">
  <defs>
    <!-- Gradientes -->
    <linearGradient id="shieldGradient" x1="0%" y1="0%" x2="0%" y2="100%">
      <stop offset="0%" style="stop-color:#f8f9fa;stop-opacity:1" />
      <stop offset="100%" style="stop-color:#e9ecef;stop-opacity:1" />
    </linearGradient>
    <linearGradient id="greenGradient1" x1="0%" y1="0%" x2="0%" y2="100%">
      <stop offset="0%" style="stop-color:#27AE60;stop-opacity:1" />
      <stop offset="100%" style="stop-color:#229954;stop-opacity:1" />
    </linearGradient>
    <linearGradient id="greenGradient2" x1="0%" y1="0%" x2="0%" y2="100%">
      <stop offset="0%" style="stop-color:#16A085;stop-opacity:1" />
      <stop offset="100%" style="stop-color:#138D75;stop-opacity:1" />
    </linearGradient>
    <linearGradient id="greenGradient3" x1="0%" y1="0%" x2="0%" y2="100%">
      <stop offset="0%" style="stop-color:#2ECC71;stop-opacity:1" />
      <stop offset="100%" style="stop-color:#27AE60;stop-opacity:1" />
    </linearGradient>
  </defs>
  
  <!-- Escudo principal -->
  <path d="M60 10 L25 25 L25 50 Q25 85 60 110 Q95 85 95 50 L95 25 Z" 
        fill="url(#shieldGradient)" 
        stroke="#1B4332" 
        stroke-width="3"/>
  
  <!-- Engrenagem laranja no topo -->
  <circle cx="60" cy="20" r="12" fill="#FF6B35"/>
  <!-- Dentes da engrenagem -->
  <rect x="58" y="6" width="4" height="6" fill="#FF6B35"/>
  <rect x="70" y="18" width="6" height="4" fill="#FF6B35"/>
  <rect x="58" y="26" width="4" height="6" fill="#FF6B35"/>
  <rect x="44" y="18" width="6" height="4" fill="#FF6B35"/>
  <!-- Círculo interno da engrenagem -->
  <circle cx="60" cy="20" r="6" fill="#E55A2B"/>
  
  <!-- Gota de óleo azul escuro -->
  <path d="M60 32 Q52 40 52 48 Q52 56 60 56 Q68 56 68 48 Q68 40 60 32 Z" 
        fill="#1B4332"/>
  <!-- Brilho na gota -->
  <ellipse cx="56" cy="46" rx="2" ry="3" fill="#16A085" opacity="0.7"/>
  
  <!-- Trator pequeno -->
  <g transform="translate(75, 45)">
    <!-- Corpo principal do trator -->
    <rect x="0" y="2" width="12" height="6" rx="1" fill="#1B4332"/>
    <!-- Cabine -->
    <rect x="7" y="-1" width="5" height="4" rx="1" fill="#1B4332"/>
    <!-- Chaminé -->
    <rect x="10" y="-3" width="1" height="2" fill="#1B4332"/>
    <!-- Roda traseira -->
    <circle cx="10" cy="8" r="3" fill="#1B4332"/>
    <circle cx="10" cy="8" r="2" fill="#16A085"/>
    <!-- Roda dianteira -->
    <circle cx="3" cy="8" r="2" fill="#1B4332"/>
    <circle cx="3" cy="8" r="1" fill="#16A085"/>
  </g>
  
  <!-- Campos verdes ondulados (3 camadas) -->
  <path d="M25 58 Q50 52 75 58 Q85 60 95 58 L95 70 Q85 68 75 70 Q50 75 25 70 Z" 
        fill="url(#greenGradient1)"/>
  <path d="M25 68 Q50 62 75 68 Q85 70 95 68 L95 80 Q85 78 75 80 Q50 85 25 80 Z" 
        fill="url(#greenGradient2)"/>
  <path d="M25 78 Q50 72 75 78 Q85 80 95 78 L95 90 Q85 88 75 90 Q50 95 25 90 Z" 
        fill="url(#greenGradient3)"/>
  
  <!-- Linhas de proteção curvas -->
  <path d="M30 85 Q55 80 80 85" stroke="#ffffff" stroke-width="2" fill="none" opacity="0.9"/>
  <path d="M28 92 Q53 87 78 92" stroke="#ffffff" stroke-width="2" fill="none" opacity="0.9"/>
  <path d="M32 99 Q57 94 82 99" stroke="#ffffff" stroke-width="1.5" fill="none" opacity="0.8"/>
</svg>
